<svg width="48" height="48" viewBox="0 0 48 48" fill="none" xmlns="http://www.w3.org/2000/svg">
<circle cx="24" cy="24" r="24" fill="#EDF2F7"/>
<g clip-path="url(#clip0_21326_489)">
<path d="M20.2287 30.0143C21.0697 29.3161 21.6062 28.2631 21.6062 27.0872C21.6062 24.9899 19.9002 23.2837 17.8035 23.2837C15.7065 23.2837 14.0005 24.9899 14.0005 27.0872C14.0005 28.2631 14.537 29.3159 15.378 30.0143C13.482 30.887 12.1276 32.7517 12.0016 34.9609C11.9862 35.2288 12.0834 35.4946 12.2682 35.6902C12.454 35.8872 12.7161 36 12.9869 36H22.6201C22.8907 36 23.1527 35.8872 23.3386 35.6902C23.5235 35.4946 23.6205 35.2288 23.6053 34.9609C23.4792 32.7517 22.1249 30.887 20.2287 30.0143ZM15.4068 27.0872C15.4068 25.7653 16.482 24.6899 17.8035 24.6899C19.1249 24.6899 20.1999 25.7653 20.1999 27.0872C20.1999 28.409 19.1249 29.4844 17.8035 29.4844C16.482 29.4844 15.4068 28.409 15.4068 27.0872ZM13.4538 34.5938C13.7914 32.4844 15.6219 30.8906 17.8035 30.8906C19.985 30.8906 21.8157 32.4842 22.153 34.5938H13.4538Z" fill="#00ADB5"/>
<path d="M29.3253 12C25.6448 12 22.6505 15.0137 22.6505 18.7181C22.6505 19.7166 22.8739 20.7083 23.2972 21.6044C23.092 22.2576 22.6133 22.7964 21.9813 23.0707C21.6249 23.2253 21.4616 23.6395 21.6161 23.9956C21.6456 24.0635 21.6844 24.1241 21.7306 24.1772C22.3266 24.8624 23.1872 25.2554 24.0919 25.2554C24.8088 25.2554 25.4938 25.0096 26.0442 24.5687C27.0421 25.1373 28.1649 25.4363 29.3253 25.4363C33.0057 25.4363 36 22.4225 36 18.7181C36 15.0137 33.0057 12 29.3253 12ZM29.3253 24.03C28.257 24.03 27.2287 23.7098 26.3513 23.1035L26.3511 23.1037C26.0559 22.8994 25.6481 22.9495 25.4128 23.2302C25.0829 23.6235 24.6015 23.8491 24.0919 23.8491C23.8923 23.8491 23.6966 23.8138 23.5124 23.7475C24.1256 23.2137 24.5605 22.4879 24.7324 21.6727C24.7685 21.5024 24.739 21.3338 24.6619 21.1919C24.2661 20.4353 24.0569 19.5802 24.0569 18.7181C24.0568 15.7892 26.4203 13.4062 29.3253 13.4062C32.2304 13.4062 34.5937 15.7892 34.5937 18.7181C34.5937 21.6471 32.2304 24.03 29.3253 24.03Z" fill="#00ADB5"/>
<path d="M27.8602 17.283C28.2084 17.4549 28.6299 17.3119 28.8019 16.9636C28.9086 16.7472 29.1318 16.6121 29.3755 16.6214C29.6887 16.6328 29.9532 16.8966 29.9651 17.2097C29.9765 17.5106 29.772 17.7733 29.4788 17.8345C28.9982 17.9345 28.6493 18.3605 28.6493 18.8476V19.3348C28.6493 19.7232 28.9641 20.038 29.3525 20.038C29.7407 20.038 30.0556 19.7232 30.0556 19.3348V19.1281C30.8647 18.8298 31.404 18.0432 31.3703 17.1563C31.3304 16.1061 30.4764 15.2538 29.4259 15.2161C28.6334 15.1877 27.8922 15.6293 27.5408 16.3413C27.3689 16.6895 27.5119 17.1112 27.8602 17.283Z" fill="#00ADB5"/>
<path d="M29.3528 20.4252C28.9644 20.4252 28.6497 20.74 28.6497 21.1284V21.5184C28.6497 21.9066 28.9644 22.2215 29.3528 22.2215C29.7411 22.2215 30.0559 21.9066 30.0559 21.5184V21.1284C30.0559 20.74 29.7411 20.4252 29.3528 20.4252Z" fill="#00ADB5"/>
</g>
<defs>
<clipPath id="clip0_21326_489">
<rect width="24" height="24" fill="white" transform="translate(12 12)"/>
</clipPath>
</defs>
</svg>
